<svg id="undraw_hello_re_3evm" xmlns="http://www.w3.org/2000/svg" width="434.891" height="293.055" viewBox="0 0 434.891 293.055">
  <path id="Path_479" data-name="Path 479" d="M704.058,175.3H305.974a6.374,6.374,0,1,0,0,12.748h11.293V340.533a6.374,6.374,0,0,0,12.748,0l.069-152.486H649.6l29.444,152.486a6.374,6.374,0,0,0,12.748,0l1.871-152.486h10.392a6.374,6.374,0,1,0,0-12.748Z" transform="translate(-279.232 -53.852)" fill="#ccc"/>
  <path id="Path_480" data-name="Path 480" d="M372.208,134.3v27.019H304.59a13.518,13.518,0,1,1-.97-27.019h68.587Z" transform="translate(-276.463 -41.257)" fill="#f2f2f2"/>
  <path id="Path_481" data-name="Path 481" d="M373.26,160.766a1.065,1.065,0,0,1-1.039,1.039H302.8a14.2,14.2,0,0,1,0-28.4h69.419a1.039,1.039,0,1,1,0,2.078H302.8a12.159,12.159,0,0,0,0,24.317h69.419A.964.964,0,0,1,373.26,160.766Z" transform="translate(-275.852 -40.98)" fill="#a57b5d"/>
  <path id="Path_482" data-name="Path 482" d="M376.083,143.116H303.408a.208.208,0,1,1,0-.416h72.675a.184.184,0,0,1,.208.208A.221.221,0,0,1,376.083,143.116Z" transform="translate(-280.338 -43.837)" fill="#ccc"/>
  <path id="Path_483" data-name="Path 483" d="M376.083,150.216H303.408a.208.208,0,1,1,0-.416h72.675a.208.208,0,0,1,0,.416Z" transform="translate(-280.338 -46.018)" fill="#ccc"/>
  <path id="Path_484" data-name="Path 484" d="M376.083,157.416H303.408a.208.208,0,1,1,0-.416h72.675a.208.208,0,0,1,0,.416Z" transform="translate(-280.338 -48.23)" fill="#ccc"/>
  <path id="Path_485" data-name="Path 485" d="M376.083,164.616H303.408a.208.208,0,1,1,0-.416h72.675a.208.208,0,0,1,0,.416Z" transform="translate(-280.338 -50.442)" fill="#ccc"/>
  <path id="Path_486" data-name="Path 486" d="M353.808,93.2v27.019H286.19a13.518,13.518,0,1,1-.97-27.019h68.587Z" transform="translate(-270.81 -28.631)" fill="#f2f2f2"/>
  <path id="Path_487" data-name="Path 487" d="M354.86,119.766a1.065,1.065,0,0,1-1.039,1.039H284.4a14.2,14.2,0,1,1,0-28.4h69.419a1.039,1.039,0,1,1,0,2.078H284.4a12.124,12.124,0,1,0,0,24.248h69.419A1.066,1.066,0,0,1,354.86,119.766Z" transform="translate(-270.2 -28.385)" fill="#5a5a5a"/>
  <path id="Path_488" data-name="Path 488" d="M357.683,102.016H285.008a.208.208,0,0,1,0-.416h72.675a.208.208,0,0,1,0,.416Z" transform="translate(-274.685 -31.211)" fill="#ccc"/>
  <path id="Path_489" data-name="Path 489" d="M357.683,109.216H285.008a.208.208,0,0,1,0-.416h72.675a.208.208,0,0,1,0,.416Z" transform="translate(-274.685 -33.423)" fill="#ccc"/>
  <path id="Path_490" data-name="Path 490" d="M357.683,116.416H285.008a.208.208,0,0,1,0-.416h72.675a.208.208,0,0,1,0,.416Z" transform="translate(-274.685 -35.635)" fill="#ccc"/>
  <path id="Path_491" data-name="Path 491" d="M357.683,123.616H285.008a.208.208,0,0,1,0-.416h72.675a.208.208,0,0,1,0,.416Z" transform="translate(-274.685 -37.847)" fill="#ccc"/>
  <path id="Path_492" data-name="Path 492" d="M460.462,300.9V277.349a3.947,3.947,0,0,0-3.949-3.949H367.349a3.947,3.947,0,0,0-3.949,3.949V300.9Z" transform="translate(-298.831 -83.988)" fill="#ccc"/>
  <rect id="Rectangle_174" data-name="Rectangle 174" width="97.062" height="30.414" transform="translate(64.569 225.715)" fill="#ccc"/>
  <path id="Path_493" data-name="Path 493" d="M363.4,382.4v23.555a3.947,3.947,0,0,0,3.949,3.949h89.233a3.947,3.947,0,0,0,3.949-3.949V382.4Z" transform="translate(-298.831 -117.472)" fill="#ccc"/>
  <circle id="Ellipse_47" data-name="Ellipse 47" cx="2.91" cy="2.91" r="2.91" transform="translate(109.74 201.259)" fill="#fff"/>
  <circle id="Ellipse_48" data-name="Ellipse 48" cx="2.91" cy="2.91" r="2.91" transform="translate(109.74 240.472)" fill="#fff"/>
  <circle id="Ellipse_49" data-name="Ellipse 49" cx="2.91" cy="2.91" r="2.91" transform="translate(109.878 278.853)" fill="#fff"/>
  <path id="Path_494" data-name="Path 494" d="M451.508,234.7v27.019H383.89a13.518,13.518,0,1,1-.97-27.019h68.587Z" transform="translate(-300.823 -72.099)" fill="#f2f2f2"/>
  <path id="Path_495" data-name="Path 495" d="M452.46,261.266a1.066,1.066,0,0,1-1.039,1.039H382a14.2,14.2,0,1,1,0-28.4h69.488a1.039,1.039,0,1,1,0,2.078H382a12.159,12.159,0,0,0,0,24.317h69.419A.929.929,0,0,1,452.46,261.266Z" transform="translate(-300.182 -71.854)" fill="#5a5a5a"/>
  <path id="Path_496" data-name="Path 496" d="M455.383,243.516H382.708a.208.208,0,0,1,0-.416h72.675a.184.184,0,0,1,.208.208q-.1.208-.208.208Z" transform="translate(-304.698 -74.68)" fill="#ccc"/>
  <path id="Path_497" data-name="Path 497" d="M455.383,250.716H382.708a.208.208,0,0,1,0-.416h72.675a.184.184,0,0,1,.208.208q-.1.208-.208.208Z" transform="translate(-304.698 -76.892)" fill="#ccc"/>
  <path id="Path_498" data-name="Path 498" d="M455.383,257.916H382.708a.208.208,0,0,1,0-.416h72.675a.184.184,0,0,1,.208.208q-.1.208-.208.208Z" transform="translate(-304.698 -79.103)" fill="#ccc"/>
  <path id="Path_499" data-name="Path 499" d="M455.383,265.116H382.708a.208.208,0,0,1,0-.416h72.675a.184.184,0,0,1,.208.208q-.1.208-.208.208Z" transform="translate(-304.698 -81.315)" fill="#ccc"/>
  <path id="Path_500" data-name="Path 500" d="M355.14,80.2H324.31a1.845,1.845,0,0,0-.831.208l-7.759,3.88a1.46,1.46,0,0,0-.762,1.871,1.372,1.372,0,0,0,.762.762l7.759,3.88a1.844,1.844,0,0,0,.831.208h30.83a1.628,1.628,0,0,0,1.732-1.524V81.724A1.678,1.678,0,0,0,355.14,80.2Z" transform="translate(-283.92 -24.637)" fill="#5a5a5a"/>
  <path id="Path_501" data-name="Path 501" d="M372,81.724v7.759a1.678,1.678,0,0,1-1.732,1.524H364.1V80.2h6.166A1.678,1.678,0,0,1,372,81.724Z" transform="translate(-299.046 -24.637)" fill="#a57b5d"/>
  <path id="Path_502" data-name="Path 502" d="M606.463,166.566l-3.256-1.386L600.99,148.9H571.268l-2.425,16.212-2.91,1.455a.611.611,0,0,0-.277.9.8.8,0,0,0,.624.416h39.975a.654.654,0,0,0,.693-.693A.767.767,0,0,0,606.463,166.566Z" transform="translate(-360.934 -45.742)" fill="#e6e6e6"/>
  <path id="Path_503" data-name="Path 503" d="M634.883,141.586H488.91a2.927,2.927,0,0,1-2.91-2.91V118.1H637.724v20.576A2.869,2.869,0,0,1,634.883,141.586Z" transform="translate(-336.493 -36.28)" fill="#ccc"/>
  <path id="Path_504" data-name="Path 504" d="M637.8,91.588h-152V3.464A3.474,3.474,0,0,1,489.264,0H634.337A3.474,3.474,0,0,1,637.8,3.464Z" transform="translate(-336.432)" fill="#5a5a5a"/>
  <path id="Path_505" data-name="Path 505" d="M631.551,87.972H497.7a2.705,2.705,0,0,1-2.7-2.7V11.9a2.705,2.705,0,0,1,2.7-2.7H631.551a2.705,2.705,0,0,1,2.7,2.7V85.27A2.662,2.662,0,0,1,631.551,87.972Z" transform="translate(-339.258 -2.826)" fill="#fff"/>
  <path id="Path_506" data-name="Path 506" d="M640.042,159.345a7.954,7.954,0,0,1,11.362.485,7,7,0,0,1,.9,1.108l18.082-3.187,4.642,10.531L649.4,172.439a8.147,8.147,0,0,1-11.016-3.187A8.3,8.3,0,0,1,640.042,159.345Z" transform="translate(-383.013 -48.288)" fill="#ffb6b6"/>
  <path id="Path_507" data-name="Path 507" d="M665.4,156.046l18.844-.208H686.6l38.381-.485s10.461-9.976,19.537-20.161l-1.247-9.214A37.779,37.779,0,0,0,730.662,102.7c-13.025,8.66-20.576,25.911-20.576,25.911l-23.832,5.681-2.356.554-14.826,3.533Z" transform="translate(-391.604 -31.549)" fill="#a57b5d"/>
  <path id="Path_508" data-name="Path 508" d="M769.757,261.4H734.493c0,1.524-38.52,2.7-38.52,2.7a13.8,13.8,0,0,0-2.286,2.217,13.418,13.418,0,0,0-3.187,8.729v2.217a13.63,13.63,0,0,0,13.648,13.648h65.539a13.631,13.631,0,0,0,13.648-13.648v-2.217A13.528,13.528,0,0,0,769.757,261.4Z" transform="translate(-399.315 -80.301)" fill="#e4e4e4"/>
  <rect id="Rectangle_175" data-name="Rectangle 175" width="14.202" height="82.097" transform="translate(330.605 210.058)" fill="#e4e4e4"/>
  <path id="Path_509" data-name="Path 509" d="M689,414.917c0,1.524,21.546.624,48.15.624s48.15.97,48.15-.624S763.753,401.2,737.15,401.2,689,413.393,689,414.917Z" transform="translate(-398.854 -123.248)" fill="#e4e4e4"/>
  <path id="Path_510" data-name="Path 510" d="M668.257,389.375h-10.6L652.6,348.5h15.657Z" transform="translate(-387.672 -107.058)" fill="#ffb6b6"/>
  <path id="Path_511" data-name="Path 511" d="M663.955,416.217H629.8V415.8a13.305,13.305,0,0,1,13.3-13.3h20.853Z" transform="translate(-380.668 -123.647)" fill="#5a5a5a"/>
  <path id="Path_512" data-name="Path 512" d="M623.088,389.375H612.557L607.5,348.5h15.588Z" transform="translate(-373.818 -107.058)" fill="#ffb6b6"/>
  <path id="Path_513" data-name="Path 513" d="M618.755,416.217H584.6V415.8a13.305,13.305,0,0,1,13.3-13.3h20.853Z" transform="translate(-366.783 -123.647)" fill="#5a5a5a"/>
  <circle id="Ellipse_50" data-name="Ellipse 50" cx="18.429" cy="18.429" r="18.429" transform="translate(325.686 10.392)" fill="#ffb6b6"/>
  <path id="Path_514" data-name="Path 514" d="M760.933,221.05s6.166,32.631-17.32,36.788c-23.486,4.226-57.433,7.136-57.433,7.136l-15.242,71.082-20.438-1.8s2.7-85.561,9.422-92.212S708.9,215.3,708.9,215.3Z" transform="translate(-387.027 -66.14)" fill="#5a5a5a"/>
  <path id="Path_515" data-name="Path 515" d="M700.715,203.9l-10.253,10.323s-74.2,11.916-77.04,29.1c-4.3,25.842-9.422,82.166-9.422,82.166l22.308-1.663,8.729-63.946,35.679-8.106,40.6-22.1Z" transform="translate(-372.742 -62.638)" fill="#5a5a5a"/>
  <path id="Path_516" data-name="Path 516" d="M775.648,19.96c-1.8-3.395-4.157-10.253-7.759-11.5a27.58,27.58,0,0,0-6.3-1.316l-6.235,2.425,3.395-2.633a19.469,19.469,0,0,0-2.009-.069L752.508,8.46,754.656,6.8c-3.949-.069-7.967.346-11.016,2.771-2.563,2.009-5.127,9.769-5.542,13.025a25,25,0,0,0,.485,9.353l1.039,1.039a16.642,16.642,0,0,0,.831-2.633,12.527,12.527,0,0,1,6.027-8.175h.069c1.8-1.039,3.949-.97,6.027-.9l9.7.346c2.356.069,4.85.208,6.651,1.732a11.537,11.537,0,0,1,2.7,3.88,82.742,82.742,0,0,1,2.7,8.729s.97-1.316,1.455-.346a33.2,33.2,0,0,0,1.386-7.759A14.343,14.343,0,0,0,775.648,19.96Z" transform="translate(-413.866 -2.086)" fill="#2f2e41"/>
  <path id="Path_517" data-name="Path 517" d="M875.6,53.29a8.064,8.064,0,0,0-7.482,8.591,8.312,8.312,0,0,0,.208,1.386L853.5,74.213l4.434,10.6,20.715-15.727a8.1,8.1,0,0,0-3.048-15.8Z" transform="translate(-449.388 -16.364)" fill="#ffb6b6"/>
  <path id="Path_518" data-name="Path 518" d="M847.936,80.554,810.8,121.776s-17.736-5.681-31.453-11.847l-6.166-18.914a37.814,37.814,0,0,1-1.8-13.648c19.052-5.057,41.152,13.787,41.152,13.787L840.315,69.4Z" transform="translate(-424.149 -21.32)" fill="#a57b5d"/>
  <path id="Path_519" data-name="Path 519" d="M747.6,181.736c-6.651-2.286-13.44-4.642-20.853-5.542l-.346-.069.069-.277c7.621-26.811,5.75-43.993,2.009-69.765a25.993,25.993,0,0,1,14.9-27.366h.069L764.5,77.4h.069l15.311,4.5a10.559,10.559,0,0,1,7.552,10.253c-.139,8.452.208,17.944.554,27.989.831,22.516,1.732,45.725-3.187,60.828v.069l-.069.069a24.917,24.917,0,0,1-16,5.612C761.871,186.724,754.8,184.23,747.6,181.736Z" transform="translate(-410.344 -23.777)" fill="#a57b5d"/>
</svg>
